<svg xmlns="http://www.w3.org/2000/svg" xmlns:xlink="http://www.w3.org/1999/xlink" aria-hidden="true" role="img" class="iconify iconify--logos" width="35.93" height="32" preserveAspectRatio="xMidYMid meet" viewBox="0 0 256 228"><path fill="#00D8FF" d="M210.483 73.823a178.081 178.081 0 0 0-18.825-8.588a155.126 155.126 0 0 0-2.632-12.033c-6.324-24.848-17.158-45.51-30.555-58.356C145.802 1.442 131.96-.229 119.957.025c-11.984.254-25.646 2.541-38.498 11.292c-13.334 9.08-26.174 27.216-34.753 50.588a154.328 154.328 0 0 0-3.488 11.568a179.617 179.617 0 0 0-18.61 8.38C6.116 69.63 0 79.1 0 90.242c0 11.252 4.86 25.637 18.298 39.642a178.316 178.316 0 0 0 19.892 16.73c1.45 3.843 3.053 7.636 4.807 11.37c6.343 13.496 14.022 25.508 22.794 35.204c8.977 9.922 18.6 16.658 28.378 18.886c9.936 2.266 20.024.562 29.66-2.916c9.672-3.493 19.226-10.254 28.346-20.366c8.73-9.677 16.414-21.554 22.807-34.869a155.45 155.45 0 0 0 4.253-11.626c6.122-4.636 11.979-9.737 17.405-15.16C252.073 117.789 256 104.77 256 90.242c0-11.142-6.116-20.613-21.517-28.419Zm-19.938 54.682a136.643 136.643 0 0 1-13.989 10.775a163.245 163.245 0 0 0-4.502-9.086a165.472 165.472 0 0 0-5.833-10.284c2.482-1.637 4.878-3.36 7.178-5.162a136.45 136.45 0 0 1 11.813-8.476c2.454 3.95 4.772 8.078 6.92 12.343a149.835 149.835 0 0 1-1.587 9.89Zm-45.068-28.886c-7.804-3.124-16.04-5.585-24.575-7.306a127.35 127.35 0 0 1 11.145-16.904c7.903-9.654 15.859-14.88 22.248-14.88c6.39 0 14.348 5.226 22.252 14.88a127.257 127.257 0 0 1 11.145 16.904c-8.535 1.721-16.77 4.182-24.574 7.306a328.496 328.496 0 0 1-17.641-3.944l-.004.026l-.006-.026a316.13 316.13 0 0 1-17.65 3.944c-8.535-1.72-16.77-4.182-24.574-7.306a126.506 126.506 0 0 1 11.146-16.905c7.903-9.653 15.859-14.879 22.248-14.879s14.348 5.226 22.252 14.879a126.538 126.538 0 0 1 11.145 16.905h.002v-.002Zm21.777 55.012a168.796 168.796 0 0 0 10.963 8.277a138.08 138.08 0 0 1-10.963 8.272c-2.28 1.634-4.662 3.338-7.136 4.99a171.522 171.522 0 0 1-7.05-13.244c2.365-.74 4.693-1.56 6.98-2.461a154.884 154.884 0 0 1 7.206-5.834v0Zm-61.476 13.256a138.484 138.484 0 0 1-10.966-8.276a171.14 171.14 0 0 1 7.206-5.833c2.284-1.636 4.668-3.34 7.14-4.991a173.694 173.694 0 0 1-7.049 13.243v-.01l.008.004l-.34.013l.001.03l.272.012q1.392.555 2.717 1.192l.004.003l.007.608v.003Zm62.168-7.587c-2.363.74-4.691 1.56-6.98 2.46c-2.285.9-4.602 1.737-6.948 2.503c2.054-4.336 4.213-8.66 6.473-12.946c2.264 4.296 4.425 8.62 6.48 12.958l-.025.025Zm9.605-33.273c-2.29 1.634-4.64 3.33-7.064 4.965a195.844 195.844 0 0 1 6.886-12.573c2.263 4.297 4.426 8.619 6.472 12.957l-.003.002l.007.024l-.018.337l.09.12l-.37.168h.001v0c-.184.07-.388.144-.593.222l-.12.046l-.13.048l-.644.253c-.443.173-.893.347-1.351.514l-.082.03l-.055.018a75.81 75.81 0 0 1-1.066.41l-.11.042l-.118.044a119.986 119.986 0 0 1-1.885.697l-.347.126l-.38.137l-.555.2l-.602.213l-.65.227l-.7.24l-.751.252l-.804.264l-.86.277l-.12.038l-.04.013h.002v-.002l.002-.002v0l-.002.002h-.003l-.004.002l-.003.003h-.001ZM119.957 142.79c-10.538 0-19.08-8.543-19.08-19.08c0-10.538 8.542-19.08 19.08-19.08c10.537 0 19.08 8.542 19.08 19.08c0 10.537-8.543 19.08-19.08 19.08Z"></path></svg>
